<?xml version="1.0" standalone="no"?>
<!DOCTYPE svg PUBLIC "-//W3C//DTD SVG 1.1//EN" "http://www.w3.org/Graphics/SVG/1.1/DTD/svg11.dtd" >
<!--
2013-9-30: Created.
-->
<svg>
<metadata>
Created by iconfont
</metadata>
<defs>

<font id="iconfont" horiz-adv-x="1024" >
  <font-face
    font-family="iconfont"
    font-weight="500"
    font-stretch="normal"
    units-per-em="1024"
    ascent="896"
    descent="-128"
  />
    <missing-glyph />
    
    <glyph glyph-name="jifen1" unicode="&#58963;" d="M876.544 171.008c-20.48-12.288-49.152-24.576-86.016-32.768-36.864-8.192-77.824-12.288-118.784-12.288-45.056 0-81.92 4.096-118.784 12.288-36.864 8.192-65.536 16.384-86.016 32.768-20.48 12.288-32.768 28.672-32.768 40.96v57.344c24.576-20.48 57.344-32.768 102.4-40.96 40.96-8.192 90.112-12.288 139.264-12.288 49.152 0 94.208 4.096 139.264 12.288 40.96 8.192 77.824 24.576 102.4 40.96v-57.344c-8.192-12.288-20.48-24.576-40.96-40.96z m0 131.072c-20.48-12.288-49.152-24.576-86.016-32.768-36.864-8.192-77.824-12.288-118.784-12.288-45.056 0-81.92 4.096-118.784 12.288-36.864 8.192-65.536 16.384-86.016 32.768-20.48 12.288-32.768 28.672-32.768 40.96v57.344c24.576-20.48 57.344-32.768 102.4-40.96 40.96-8.192 90.112-16.384 139.264-16.384 49.152 0 94.208 4.096 139.264 16.384 40.96 8.192 77.824 24.576 102.4 40.96v-57.344c-8.192-16.384-20.48-28.672-40.96-40.96z m0 126.976c-20.48-12.288-49.152-24.576-86.016-32.768-36.864-8.192-77.824-12.288-118.784-12.288-45.056 0-81.92 4.096-118.784 12.288-36.864 8.192-65.536 16.384-86.016 32.768-20.48 12.288-32.768 28.672-32.768 40.96v40.96c0 16.384 12.288 28.672 32.768 40.96 20.48 12.288 49.152 24.576 86.016 32.768 36.864 8.192 77.824 12.288 118.784 12.288 45.056 0 81.92-4.096 118.784-12.288 36.864-8.192 65.536-16.384 86.016-32.768 20.48-12.288 32.768-28.672 32.768-40.96v-40.96c0-16.384-12.288-28.672-32.768-40.96zM389.12 523.264c-49.152 0-94.208 4.096-135.168 12.288-40.96 8.192-77.824 20.48-102.4 36.864-24.576 16.384-36.864 28.672-36.864 49.152V666.624c0 16.384 12.288 32.768 36.864 49.152 24.576 16.384 61.44 28.672 102.4 36.864 40.96 8.192 90.112 12.288 139.264 12.288s98.304-4.096 139.264-12.288c40.96-8.192 77.824-20.48 102.4-36.864 24.576-16.384 36.864-32.768 36.864-49.152V650.24l-90.112-8.192c-73.728 0-196.608-45.056-192.512-118.784z m0-49.152v-98.304c-49.152 0-94.208 4.096-135.168 12.288-40.96 8.192-77.824 20.48-102.4 36.864-24.576 16.384-36.864 32.768-36.864 49.152V539.648c28.672-20.48 69.632-36.864 118.784-49.152 49.152-8.192 98.304-16.384 155.648-16.384z m0-143.36v-98.304c-49.152 0-94.208 4.096-135.168 12.288-40.96 8.192-77.824 20.48-102.4 36.864-24.576 16.384-36.864 32.768-36.864 49.152v65.536c28.672-20.48 69.632-36.864 118.784-49.152 49.152-12.288 98.304-16.384 155.648-16.384z m0-143.36V93.184c-49.152 0-94.208 4.096-135.168 12.288-40.96 8.192-77.824 20.48-102.4 36.864-24.576 16.384-36.864 32.768-36.864 49.152v65.536c28.672-20.48 69.632-36.864 118.784-49.152 49.152-16.384 98.304-20.48 155.648-20.48z m282.624-98.304c49.152 0 94.208 4.096 139.264 12.288 40.96 8.192 77.824 24.576 102.4 40.96v-57.344c0-16.384-12.288-28.672-32.768-40.96-20.48-12.288-49.152-24.576-86.016-32.768-36.864-8.192-77.824-12.288-118.784-12.288-45.056 0-81.92 4.096-118.784 12.288-36.864 8.192-65.536 16.384-86.016 32.768-20.48 12.288-32.768 28.672-32.768 40.96v57.344c24.576-20.48 57.344-32.768 102.4-40.96 36.864-8.192 81.92-12.288 131.072-12.288z m0 0"  horiz-adv-x="1024" />

    
    <glyph glyph-name="renwu-touxiang" unicode="&#58897;" d="M856.1664 86.42560000000003A425.1136 425.1136 0 0 1 977.0496 384a426.5984 426.5984 0 0 1-426.6496 426.6496 426.6496 426.6496 0 0 1-303.9232-726.1184l192.256 117.6064 30.6176 69.5296c-34.7648 28.7232-57.6 72.2944-57.6 118.7328V504.8832a135.168 135.168 0 0 0 270.2848 0v-114.4832c0-46.336-23.0912-90.624-58.3168-119.7568l29.7472-68.5568 202.7008-115.6608zM550.4-128c-282.7264 0-512 229.2736-512 512 0 282.7776 229.2736 512 512 512s512-229.2224 512-512c0-282.7264-229.2736-512-512-512z"  horiz-adv-x="1126" />

    
    <glyph glyph-name="huiyuan" unicode="&#64974;" d="M509.44 401.92m-417.28 0a417.28 417.28 0 1 1 834.56 0 417.28 417.28 0 1 1-834.56 0ZM512-128C229.376-128 0 101.376 0 384S229.376 896 512 896s512-229.376 512-512-229.376-512-512-512z m307.2 716.8h-256v-102.4h33.792c-28.672-69.632-57.344-138.752-84.992-203.776-27.648 65.024-56.32 134.144-84.992 203.776H460.8V588.8H204.8v-102.4h111.616c104.96-257.024 195.584-460.8 195.584-460.8s90.624 203.776 195.584 460.8H819.2V588.8z"  horiz-adv-x="1024" />

    
    <glyph glyph-name="U" unicode="&#58880;" d="M212.992 739.328q34.816-6.144 63.488-15.36 23.552-8.192 44.544-19.968t23.04-29.184q1.024-8.192 1.536-28.672t0.512-49.152l0-60.416 0-65.536 0-169.984q-2.048-22.528 2.048-45.056 3.072-19.456 10.752-41.984t25.088-39.936q16.384-18.432 36.352-29.696t39.424-17.408 36.864-7.68 28.672-1.536q23.552 3.072 53.248 10.752t56.32 38.4q13.312 15.36 21.504 32.768t13.312 31.744q5.12 17.408 9.216 34.816l2.048 407.552q4.096 9.216 10.24 18.432 5.12 8.192 14.848 15.872t25.088 12.8q14.336 5.12 28.672 9.216t25.6 6.144q13.312 3.072 26.624 5.12l0-452.608q-1.024-36.864-7.168-69.632-6.144-28.672-18.944-56.832t-37.376-45.568q-50.176-35.84-109.056-54.272t-122.368-20.48q-30.72-1.024-62.976 3.584t-62.464 13.312-56.32 20.992-45.568 26.624q-20.48 14.336-34.816 36.352t-24.064 46.08-14.336 48.128-4.608 43.52l0 34.816 0 58.368 0 74.752 0 80.896q0 94.208 1.024 209.92z"  horiz-adv-x="1024" />

    
    <glyph glyph-name="xuanxiang" unicode="&#59005;" d="M283.529495 616.368414l673.725358 0 0-102.523001-673.725358 0 0 102.523001ZM109.972671 616.368414l10.252505 0c25.484418 0 46.13576-20.651342 46.13576-46.13576l0-10.252505c0-25.484418-20.651342-46.13576-46.13576-46.13576l-10.252505 0c-25.484418 0-46.13576 20.651342-46.13576 46.13576l0 10.252505C63.836911 595.717072 84.488253 616.368414 109.972671 616.368414zM283.529495 352.737108l673.725358 0 0-102.523001-673.725358 0 0 102.523001ZM109.972671 352.737108l10.252505 0c25.484418 0 46.13576-20.651342 46.13576-46.13576l0-10.252505c0-25.484418-20.651342-46.13576-46.13576-46.13576l-10.252505 0c-25.484418 0-46.13576 20.651342-46.13576 46.13576l0 10.252505C63.836911 332.085766 84.488253 352.737108 109.972671 352.737108zM283.529495 89.104779l673.725358 0 0-102.523001-673.725358 0 0 102.523001ZM109.972671 89.104779l10.252505 0c25.484418 0 46.13576-20.651342 46.13576-46.13576l0-10.252505c0-25.484418-20.651342-46.13576-46.13576-46.13576l-10.252505 0c-25.484418 0-46.13576 20.651342-46.13576 46.13576l0 10.252505C63.836911 68.453437 84.488253 89.104779 109.972671 89.104779z"  horiz-adv-x="1024" />

    
    <glyph glyph-name="sousuo" unicode="&#58904;" d="M950.331163-14.844847l-231.05947 227.378637c60.501956 65.742307 97.67253 152.668075 97.67253 248.350275 0 204.635657-168.574347 370.524848-376.519376 370.524848-207.946053 0-376.520399-165.888168-376.520399-370.524848s168.574347-370.521778 376.520399-370.521778c89.846284 0 172.254156 31.072693 236.979296 82.752726l231.965096-228.269937c11.31265-11.128455 29.650297-11.128455 40.960901 0C961.64279-44.02647 961.64279-25.978419 950.331163-14.844847zM440.425871 147.360442c-175.954431 0-318.594105 140.369981-318.594105 313.523623s142.638651 313.517483 318.594105 313.517483c175.953408 0 318.593082-140.363841 318.593082-313.517483S616.379279 147.360442 440.425871 147.360442z"  horiz-adv-x="1024" />

    
    <glyph glyph-name="jia" unicode="&#58898;" d="M511.999983 810.780392c-235.112901 0-425.708822-190.595921-425.708822-425.708822 0-235.112901 190.595921-425.708822 425.708822-425.708822s425.708822 190.595921 425.708822 425.708822C937.708805 620.183254 747.111667 810.780392 511.999983 810.780392zM755.262167 354.662581l-212.854411 0 0-212.854411-60.815546 0 0 212.854411-212.854411 0 0 60.815546 212.854411 0 0 212.854411 60.815546 0 0-212.854411 212.854411 0L755.262167 354.662581z"  horiz-adv-x="1024" />

    
    <glyph glyph-name="good" unicode="&#58881;" d="M2.693 322.81l67.261-237.878c74.124-210.049 143.373-210.636 143.373-210.636h72.429v659.151h-72.429c-116.329 0-210.634-94.305-210.634-210.636zM988.849 327.468c-7.095 9.383-9.591 21.933-5.191 32.842 23.699 58.78-8.173 115.851-26.876 142.131-6.794 9.546-17.729 15.057-29.443 15.057h-251.047c-23.962 0-41.325 22.845-34.912 45.931l27.109 97.593c67.177 237.516-113.612 236.813-149.443 234.428-3.839-0.257-7.645-1.072-11.237-2.451-98.274-37.701-54.604-107.1-54.604-109.715 37.101-162.831-60.068-223.365-105.567-242.337-13.434-5.6-22.012-18.726-22.012-33.283v-597.132c0-20.013 16.13-36.235 36.142-36.235 99.084 0.002 370.865 0.010 419.001 0.051 4.928 0.003 9.889 1.003 14.427 2.922 81.484 34.481 96.729 80.471 97.346 107.099 0.315 13.635 9.505 25.439 21.788 31.363 75.929 36.631 78.953 109.971 77.728 138.403-0.319 7.437 1.855 14.751 5.722 21.113 44.802 73.684 11.123 125.699-8.928 152.221z"  horiz-adv-x="1024" />

    
    <glyph glyph-name="shouji" unicode="&#59123;" d="M675.747411 830.708971H348.251565c-40.98546 0-74.442456-33.534767-74.442456-74.439386v-744.535077c0-40.944528 33.458019-74.442456 74.442456-74.442456h327.495846c40.948621 0 74.443479 33.497928 74.44348 74.442456V756.269585c0 40.904619-33.494858 74.439386-74.44348 74.439386z m-208.420866-59.535954h89.34691c8.225335 0 14.94334-6.678096 14.943341-14.904455 0-8.269337-6.716982-14.904455-14.943341-14.904455h-89.34691c-8.18952 0-14.82566 6.635117-14.825661 14.904455 0 8.226359 6.635117 14.904455 14.825661 14.904455z m44.634569-804.074102c-24.645306 0-44.671409 19.951401-44.671408 44.635593s20.026102 44.711318 44.671408 44.711318c24.76094 0 44.711318-20.027126 44.711318-44.711318s-19.949354-44.635593-44.711318-44.635593z m208.537524 119.078049H303.615972V681.826106h416.882666v-595.649142z"  horiz-adv-x="1024" />

    
    <glyph glyph-name="duigou" unicode="&#58882;" d="M461.016 110.467c-12.299 0-24.599 4.698-33.979 14.091l-197.608 197.579c-18.75 18.765-18.75 49.17 0 67.935 18.745 18.764 49.17 18.764 67.925 0l163.661-163.673 418.058 418.107c18.765 18.764 49.18 18.764 67.944 0 18.73-18.741 18.73-49.156 0-67.925l-452.061-452.037c-9.37-9.38-21.68-14.078-33.941-14.078v0zM512.003-128c-282.315 0-512.003 229.683-512.003 511.996 0 282.317 229.688 512.004 512.003 512.004 100.708 0 198.194-29.224 281.875-84.511 16.855-11.134 21.485-33.819 10.366-50.674-11.133-16.846-33.819-21.5-50.674-10.366-71.699 47.373-155.239 72.411-241.568 72.411-241.998 0-438.862-196.865-438.862-438.863 0-241.992 196.865-438.858 438.862-438.858 241.993 0 438.858 196.866 438.858 438.858 0 15.274-0.776 30.651-2.339 45.714-2.080 20.098 12.529 38.061 32.618 40.131 20.069 2.085 38.061-12.529 40.131-32.613 1.816-17.549 2.73-35.449 2.73-53.233-0.001-282.314-229.684-511.997-511.998-511.997v0zM512.003-128z"  horiz-adv-x="1025" />

    
    <glyph glyph-name="jifen" unicode="&#58974;" d="M512 384m-512 0a512 512 0 1 1 1024 0 512 512 0 1 1-1024 0ZM512 384m-477.866667 0a477.866667 477.866667 0 1 1 955.733334 0 477.866667 477.866667 0 1 1-955.733334 0ZM512 254.532267c-150.801067 0-273.066667 57.9584-273.066667 129.467733 0 18.6368 8.2944 36.317867 23.210667 52.3264 42.3936-45.431467 138.308267-77.141333 249.856-77.141333 111.547733 0 207.4624 31.709867 249.856 77.141333 14.916267-16.008533 23.210667-33.6896 23.210667-52.3264 0-71.509333-122.2656-129.467733-273.066667-129.467733z m0 143.598933c-150.801067 0-273.066667 57.9584-273.066667 129.467733S361.198933 657.066667 512 657.066667s273.066667-57.9584 273.066667-129.467734-122.2656-129.467733-273.066667-129.467733z m0-186.129067c112.981333 0 209.954133 32.529067 251.460267 78.9504 13.9264-15.530667 21.6064-32.631467 21.6064-50.551466C785.066667 168.891733 662.801067 110.933333 512 110.933333s-273.066667 57.9584-273.066667 129.467734c0 17.92 7.68 35.0208 21.6064 50.551466 41.506133-46.421333 138.478933-78.9504 251.460267-78.9504z"  horiz-adv-x="1024" />

    
    <glyph glyph-name="chevron-copy-copy-copy-copy-copy-copy" unicode="&#58918;" d="M249.344 361.57l479.122-479.157c13.943-13.907 36.48-13.907 50.422 0 13.943 13.943 13.943 36.515 0 50.458l-455.73 455.765 448.205 448.241c13.551 13.516 13.551 35.446 0 48.961-13.515 13.586-35.446 13.586-48.995 0l-465.5-465.464c-1.819-1.819-2.71-4.030-4.030-6.133-1.105-0.82-2.461-1.248-3.495-2.282-13.907-13.907-13.907-36.48 0-50.387z"  horiz-adv-x="1024" />

    
    <glyph glyph-name="chevron-down-copy" unicode="&#58896;" d="M774.656 406.43l-479.122 479.157c-13.943 13.907-36.479 13.907-50.422 0-13.943-13.943-13.943-36.515 0-50.459l455.73-455.765-448.205-448.241c-13.551-13.516-13.551-35.446 0-48.961 13.515-13.586 35.446-13.586 48.995 0l465.5 465.465c1.819 1.819 2.71 4.030 4.030 6.133 1.105 0.82 2.461 1.248 3.495 2.282 13.907 13.907 13.907 36.481 0 50.387z"  horiz-adv-x="1024" />

    
    <glyph glyph-name="fenxiang" unicode="&#58886;" d="M911.8 304.2c-15.6 0-26-10.4-26-26v-194.7c0-33.8-28.6-62.3-62.3-62.3H197.8c-33.7 0-62.3 28.6-62.3 62.3V628.7c0 33.8 28.6 62.3 62.3 62.3h199.9c15.6 0 26 10.4 26 26s-10.4 26-26 26H197.8c-62.3 0-114.2-51.9-114.2-114.2v-545.2c0-62.3 51.9-114.2 114.2-114.2h628.3c62.3 0 114.2 51.9 114.2 114.2V278.2c-2.5 15.6-12.9 26-28.5 26z m0 0M763.8 794.9c-10.4 10.4-26 10.4-36.4 0-10.4-10.4-10.4-26 0-36.4l127.2-127.2H717.1c-254.4-31.2-319.3-194.7-334.9-428.4 0-15.6 10.4-26 23.4-28.6h2.6c13 0 26 10.4 26 23.4 15.6 220.7 70.1 353.1 288.2 381.7h142.8L737.9 452.2c-10.4-10.4-10.4-26 0-36.4 5.2-5.2 13-7.8 18.2-7.8 5.2 0 13 2.6 18.2 7.8l148 148c10.4 10.4 15.6 23.4 15.6 36.3 0 13-5.2 26-15.6 36.3L763.8 794.9z m0 0"  horiz-adv-x="1024" />

    
    <glyph glyph-name="huiyuan2" unicode="&#58883;" d="M1080.125 507.75l-135 253.125c-16.875 28.125-45 50.625-78.75 50.625H320.75c-33.75 0-61.875-16.875-78.75-50.625l-129.375-253.125c-16.875-33.75-11.25-78.75 11.25-106.875L528.875-37.875c16.875-16.875 39.375-28.125 67.5-28.125 22.5 0 45 5.625 61.875 22.5l410.625 444.375c22.5 28.125 28.125 73.125 11.25 106.875z m-219.375-78.75l-191.25-225-11.25-11.25c-16.875-11.25-39.375-22.5-56.25-22.5H596.375c-22.5 0-45 11.25-61.875 33.75L343.25 429c-16.875 11.25-16.875 33.75-5.625 45 11.25 11.25 33.75 11.25 39.375-5.625L568.25 243.375c5.625-5.625 11.25-11.25 22.5-11.25 5.625 0 16.875 0 22.5 5.625l196.875 230.625c11.25 11.25 28.125 16.875 39.375 5.625 16.875-11.25 16.875-33.75 11.25-45z"  horiz-adv-x="1216" />

    
    <glyph glyph-name="jiantouzuo" unicode="&#58884;" d="M221.64257362 387.63138047L714.11961178 879.90702338c17.95768931 17.95768931 46.99208391 17.82342648 64.81550939-0.30209189a46.48859677 46.48859677 0 0 0-0.26852569-65.35256175l-426.58742306-426.3860288L778.56589786-35.56589938000002A46.45503155 46.45503155 0 0 0 779.0358188-100.91846112999997 45.58232109 45.58232109 0 0 0 714.22030842-101.42194828000004l-492.5777348 489.05332875z"  horiz-adv-x="1024" />

    
    <glyph glyph-name="jiantou1" unicode="&#58885;" d="M801.548285 385.728968L301.254151-114.36057400000004c-18.242732-18.242732-47.73799-18.106338-65.844327 0.306887a47.226511 47.226511 0 0 0 0.272788 66.389904l433.358652 433.154061L235.784908 815.643665A47.192413 47.192413 0 0 0 235.307528 882.0335689999999 46.30585 46.30585 0 0 0 301.151856 882.545048l500.396429-496.81608z"  horiz-adv-x="1024" />

    
    <glyph glyph-name="remove" unicode="&#58947;" d="M698.4 351.1H325.6c-18.2 0-32.9 14.7-32.9 32.9s14.7 32.9 32.9 32.9h372.8c18.2 0 32.9-14.7 32.9-32.9s-14.7-32.9-32.9-32.9zM512-9.6C295-9.6 118.4 167 118.4 384S295 777.6 512 777.6 905.6 601 905.6 384 729-9.6 512-9.6z m0 729.9c-185.4 0-336.3-150.9-336.3-336.3S326.6 47.7 512 47.7 848.3 198.6 848.3 384 697.4 720.3 512 720.3z"  horiz-adv-x="1024" />

    
    <glyph glyph-name="gerenzhongxinwoderenwubiaozhuntoumianxing" unicode="&#59033;" d="M386.048 393.557a227.556 227.556 0 1 0 251.876 0c174.222-53.731 300.743-215.978 300.743-407.78a28.444 28.444 0 0 0-28.445-28.444H113.778a28.444 28.444 0 0 0-28.445 28.445c0 191.8 126.578 354.048 300.715 407.78z"  horiz-adv-x="1024" />

    
    <glyph glyph-name="guanbi" unicode="&#58887;" d="M574.55 373.65L904.4 703.5c16.65 16.65 16.65 44.1 0 60.75l-1.8 1.8c-16.65 16.65-44.1 16.65-60.75 0L512 435.75l-329.85 330.3c-16.65 16.65-44.1 16.65-60.75 0l-1.8-1.8c-17.1-16.65-17.1-44.1 0-60.75l329.85-329.85L119.6 43.8c-16.65-16.65-16.65-44.1 0-60.75l1.8-1.8c16.65-16.65 44.1-16.65 60.75 0L512 311.1l329.85-329.85c16.65-16.65 44.1-16.65 60.75 0l1.8 1.8c16.65 16.65 16.65 44.1 0 60.75L574.55 373.65z"  horiz-adv-x="1024" />

    
    <glyph glyph-name="shoushi-tucao" unicode="&#58888;" d="M958.88 370.517c-8.343 58.224-114.549 409.896-128.934 435.665-9.827 17.611-26.706 26.079-50.269 25.859-41.822-0.797-104.374-1.116-164.874-1.424-164.993-0.837-217.917-1.624-227.625-4.911-39.984-13.488-59.08-43.73-58.373-92.43l1.39-94.602c1.599-107.701 3.078-207.672 4.318-321.539 0.199-18.777 6.44-31.836 20.854-43.65 11.68-9.573 24.061-18.209 36.03-26.557 58.179-40.572 118.335-82.539 128.699-253.992 0.025-0.418 0.07-0.827 0.13-1.225 3.043-20.62 13.398-37.315 29.152-47.007 9.314-5.728 19.962-8.626 31.184-8.626 7.436 0 15.121 1.275 22.831 3.845 17.024 5.668 59.314 24.515 84.208 77.02 30.466 64.27 25.077 155.206-15.988 270.538 45.722 0.628 157.184 2.201 214.71 3.138 26.885 0.428 46.952 8.198 59.638 23.07 11.968 14.044 16.316 33.16 12.919 56.828zM247.114 824.392c-36.159-0.388-72.314-0.946-108.468-1.574-36.717-0.638-51.002-14.723-52.705-51.968-2.714-59.339-7.571-154.22-12.023-241.232-5.14-100.449-9.583-187.192-9.901-202.811-0.309-15.151 3.611-26.955 11.64-35.103 7.944-8.049 19.539-12.133 34.481-12.133h0.553c47.475 0.339 91.136 0.956 133.461 1.922 38.127 0.867 55.654 18.986 55.16 57.028-1.016 77.598-5.2 363.825-6.375 440.835-0.534 34.855-11.108 45.046-45.823 45.036z"  horiz-adv-x="1024" />

    
    <glyph glyph-name="fuwuzhongxin" unicode="&#58889;" d="M870.4 121.6h-51.2V486.4c0 32-25.6 57.6-57.6 57.6H588.8v-416H576V672c0 32-25.6 57.6-57.6 57.6H268.8c-32 0-57.6-25.6-57.6-57.6v-550.4h-44.8c-12.8 0-25.6-12.8-25.6-32 0-12.8 12.8-25.6 25.6-25.6h704c12.8 0 25.6 12.8 25.6 32 0 12.8-12.8 25.6-25.6 25.6z m-499.2 128c0-6.4 0-6.4-6.4-6.4h-64c-6.4 0-6.4 0-6.4 6.4v19.2c0 6.4 0 6.4 6.4 6.4h57.6c6.4 0 6.4 0 6.4-6.4l6.4-19.2z m0 140.8c0-6.4 0-6.4-6.4-6.4h-64c-6.4 0-6.4 0-6.4 6.4V416c0 6.4 0 6.4 6.4 6.4h57.6c6.4 0 6.4 0 6.4-6.4l6.4-25.6z m0 147.2c0-6.4 0-6.4-6.4-6.4h-64c-6.4 0-6.4 0-6.4 6.4v19.2c0 6.4 0 6.4 6.4 6.4h57.6c6.4 0 6.4 0 6.4-6.4l6.4-19.2z m121.6-288c0-6.4 0-6.4-6.4-6.4h-64c-6.4 0-6.4 0-6.4 6.4v19.2c0 6.4 0 6.4 6.4 6.4H480c6.4 0 6.4 0 6.4-6.4v-19.2h6.4z m0 140.8c0-6.4 0-6.4-6.4-6.4h-64c-6.4 0-6.4 0-6.4 6.4V416c0 6.4 0 6.4 6.4 6.4H480c6.4 0 6.4 0 6.4-6.4v-25.6h6.4z m0 147.2c0-6.4 0-6.4-6.4-6.4h-64c-6.4 0-6.4 0-6.4 6.4v19.2c0 6.4 0 6.4 6.4 6.4H480c6.4 0 6.4 0 6.4-6.4v-19.2h6.4z m224-288c0-6.4 0-6.4-6.4-6.4h-57.6c-6.4 0-6.4 0-6.4 6.4v19.2c0 6.4 0 6.4 6.4 6.4h57.6c6.4 0 6.4 0 6.4-6.4v-19.2z m0 140.8c0-6.4 0-6.4-6.4-6.4h-57.6c-6.4 0-6.4 0-6.4 6.4V416c0 6.4 0 6.4 6.4 6.4h57.6c6.4 0 6.4 0 6.4-6.4v-25.6z"  horiz-adv-x="1024" />

    
    <glyph glyph-name="search-copy" unicode="&#58890;" d="M222.6944 673.2032A323.1488 323.1488 0 0 1 133.6832 384c19.2512 87.3728 64.512 172.7488 135.0144 243.3024C339.2512 697.8815999999999 424.6272 743.1168 512 762.3679999999999c-101.632 19.1488-210.688-10.5216-289.3056-89.1648zM989.44 73.88160000000005l-121.7024 121.7024a118.016 118.016 0 0 1-92.8 34.1248c114.4576 165.5552 97.92 394.3936-49.4848 541.824-165.9392 165.9904-435.0464 165.9904-601.0368 0-165.9392-165.9904-165.9392-435.1232 0-601.1136 147.4048-147.4304 376.064-163.84 541.7216-49.3824-2.56-33.28 8.8576-67.5328 34.1248-92.8l121.7024-121.728c46.08-45.9776 121.3696-45.9776 167.3472 0 46.208 45.9776 46.208 121.2928 0.128 167.3728zM676.096 219.904c-138.6752-138.6752-363.392-138.6752-502.016 0-138.6752 138.6752-138.6752 363.4432 0 502.1184 138.624 138.6752 363.3408 138.6752 502.016 0 138.6496-138.5728 138.6496-363.4432 0-502.1184z"  horiz-adv-x="1024" />

    
    <glyph glyph-name="xin" unicode="&#58891;" d="M831.9 644.47c-79.05 79.05-206.85 79.05-285.9 0l-33.59-33.59-33.59 33.59c-79.05 79.05-206.85 79.05-285.9 0-78.64-79.05-78.64-206.85 0.41-285.9l41.78-41.78 269.93-269.92c4.5-4.51 11.47-4.51 15.97 0l269.93 269.92 41.78 41.78c78.23 79.06 78.23 206.85-0.82 285.9z m0 0"  horiz-adv-x="1024" />

    
    <glyph glyph-name="dingdan" unicode="&#58892;" d="M825.7 750H691.3c-6.3 27.5-31.7 48.7-61.4 48.7h-66.6c-8.5 21.2-28.6 34.9-51.8 34.9-23.3 0-43.4-13.8-51.8-34.9H392c-29.6 0-55-21.2-61.4-48.7H196.2c-34.9 0-61.4-28.6-61.4-63.5v-683.4c0-34.9 27.5-63.5 61.4-63.5h628.4c34.9 0 64.5 28.6 64.5 63.5V686.5c1.1 34.9-28.5 63.5-63.4 63.5z m-313.2-30.7c28.6 0 50.8-23.3 50.8-50.8 0-28.6-23.3-50.8-50.8-50.8-28.6 0-50.8 23.3-50.8 50.8s22.3 50.8 50.8 50.8z m193.6-525.8c0-12.7-10.6-23.3-23.3-23.3H342.2c-12.7 0-23.3 10.6-23.3 23.3v21.2c0 12.7 10.6 23.3 23.3 23.3h340.6c12.7 0 23.3-10.6 23.3-23.3v-21.2z m0 214.8c0-12.7-10.6-23.3-23.3-23.3H342.2c-12.7 0-23.3 10.6-23.3 23.3v21.2c0 12.7 10.6 23.3 23.3 23.3h340.6c12.7 0 23.3-10.6 23.3-23.3v-21.2z"  horiz-adv-x="1024" />

    
    <glyph glyph-name="dd" unicode="&#58893;" d="M268.02606186-59.64232617000005a117.44211993 117.44211993 0 0 0-117.28124029 117.2812403L150.74482157 667.69441921A117.44211993 117.44211993 0 0 0 268.02606186 784.97565951l488.02831609 0a117.44211993 117.44211993 0 0 0 117.2812403-117.2812403l0-609.97506528a117.44211993 117.44211993 0 0 0-117.2812403-117.28124029z m0 792.97562884a65.79976308 65.79976308 0 0 1-65.71932328-65.71932326l0-609.97506528a65.79976308 65.79976308 0 0 1 65.71932328-65.71932326l488.02831609 0a65.79976308 65.79976308 0 0 1 65.71932328 65.71932326L821.77370123 667.69441921a65.79976308 65.79976308 0 0 1-65.71932328 65.71932326zM318.94446042 336.84548826a25.82117841 25.82117841 0 1 0 0 51.56191701l386.11107916 0a25.82117841 25.82117841 0 1 0 0-51.56191701zM318.94446042 214.89873909000005a25.82117841 25.82117841 0 1 0 0 51.24015778l263.44037172 0a25.82117841 25.82117841 0 1 0 0-51.64235683zM318.94446042 459.19443646a25.82117841 25.82117841 0 1 0 0 51.64235684l386.11107916 0a25.82117841 25.82117841 0 1 0 0-51.64235684z"  horiz-adv-x="1024" />

    
    <glyph glyph-name="geren" unicode="&#58894;" d="M512 888.685714C233.2672 888.685714 7.314286 662.7328 7.314286 384 7.314286 105.2672 233.2672-120.68571399999996 512-120.68571399999996c278.7328 0 504.685714 225.952914 504.685714 504.685714C1016.685714 662.7328 790.7328 888.685714 512 888.685714zM785.700571 133.13462900000002c-9.216 109.056-83.719314 199.299657-184.714971 231.936 42.232686 27.267657 70.275657 74.503314 70.275657 128.643657 0 84.860343-69.12 153.6-153.994971 153.6-85.240686 0-153.980343-68.739657-153.980343-153.6 0-54.140343 28.028343-101.376 70.275657-128.643657-100.995657-32.636343-175.484343-122.88-184.700343-231.936 0-1.916343-0.394971-3.452343 0-6.144 0.760686-9.596343 9.216-17.276343 18.812343-17.276343 10.752 0 19.192686 8.835657 19.192686 19.207314C296.8576 247.54468599999996 396.317257 340.114286 517.266286 340.114286c120.978286 0 220.042971-92.540343 230.4-211.207315 0-10.357029 8.455314-19.192686 19.207314-19.192685 9.596343 0 18.051657 7.68 18.812343 17.276343 0.380343 2.691657 0 4.227657 0 6.144zM401.700571 493.714286c0 63.751314 51.829029 115.2 115.565715 115.2 63.751314 0 115.594971-51.448686 115.594971-115.2 0-63.751314-51.843657-115.2-115.594971-115.2-63.736686 0-115.565714 51.448686-115.565715 115.2z"  horiz-adv-x="1024" />

    
    <glyph glyph-name="gouwuche-copy" unicode="&#58895;" d="M347.136 112.63999999999999q19.456 0 36.864-7.168t30.72-19.968 20.48-30.208 7.168-36.864-7.168-36.864-20.48-30.208-30.72-20.48-36.864-7.68q-20.48 0-37.376 7.68t-30.208 20.48-20.48 30.208-7.168 36.864 7.168 36.864 20.48 30.208 30.208 19.968 37.376 7.168zM773.12 110.59199999999998q19.456 0 37.376-7.168t30.72-19.968 20.48-30.208 7.68-36.864-7.68-36.864-20.48-30.208-30.72-20.48-37.376-7.68-36.864 7.68-30.208 20.48-20.48 30.208-7.68 36.864 7.68 36.864 20.48 30.208 30.208 19.968 36.864 7.168zM945.152 692.2239999999999q28.672 0 44.544-7.68t22.528-18.944 6.144-24.064-3.584-22.016-12.8-37.888-22.016-62.976-24.064-68.096-17.92-53.248q-13.312-40.96-33.792-56.832t-50.176-15.872l-34.816 0-66.56 0-87.04 0-95.232 0-253.952 0 15.36-92.16 516.096 0q49.152 0 49.152-41.984 0-20.48-9.728-35.328t-38.4-14.848l-49.152 0-95.232 0-117.76 0-119.808 0-98.304 0-56.32 0q-20.48 0-34.304 9.216t-23.04 24.064-14.848 32.256-8.704 32.768q-1.024 6.144-5.632 29.696t-11.264 58.88-14.848 78.848-16.384 87.552q-19.456 103.424-44.032 230.4l-76.8 0q-15.36 0-25.6 7.68t-16.896 18.432-9.216 23.04-2.56 22.528q0 20.48 13.824 33.792t37.376 13.312l22.528 0 20.48 0 25.6 0 34.816 0q20.48 0 32.768-6.144t19.456-15.36 10.24-19.456 5.12-17.408q2.048-8.192 4.096-23.04t4.096-30.208q3.072-18.432 6.144-38.912l700.416 0z"  horiz-adv-x="1024" />

    


  </font>
</defs>
</svg>
